<svg version="1.2" xmlns="http://www.w3.org/2000/svg" viewBox="0 0 297 51" width="297" height="51">
	<title>logo (6)-svg</title>
	<style>
		.s0 { fill: #00a8ff } 
		.s1 { fill: #ffffff } 
		.s2 { fill: #0097e6 } 
	</style>
	<filter id="f0">
		<feFlood flood-color="#ffffff" flood-opacity="1" />
		<feBlend mode="normal" in2="SourceGraphic"/>
		<feComposite in2="SourceAlpha" operator="in" />
	</filter>
	<g id="Layer" filter="url(#f0)">
		<path id="Layer" class="s0" d="m57.7 19.9c0-0.7-0.4-1.1-1.1-1.1h-1.9v-5.2h5.8c2.2 0 3.2 1 3.2 3.2v24.5c0 0.7 0.4 1.1 1.1 1.1h1.9v5.1h-5.7c-2.3 0-3.2-1-3.2-3.2v-24.4z"/>
		<path id="Layer" class="s0" d="m71.9 29.4c0-0.7-0.4-1.1-1.1-1.1h-1.8v-5.2h5.8c2.2 0 3.2 1 3.2 3.2v15c0 0.7 0.4 1.1 1.1 1.1h1.9v5.1h-5.8c-2.2 0-3.2-1-3.2-3.2v-14.9zm0.3-15.7h5.3v5.6h-5.3z"/>
		<path id="Layer" class="s0" d="m86 29.4c0-0.7-0.4-1.1-1.1-1.1h-1.9v-5.2h5.6c2.1 0 3.2 1 3.2 2.7v0.7c0 0.5 0 1.1 0 1.1h0.1c1.1-2.4 4.1-5.1 7.9-5.1 3.7 0 6.1 1.7 7.1 5h0.1c1.3-2.6 4.4-5 8.3-5 5.1 0 8 2.9 8 9.3v9.5c0 0.7 0.4 1.1 1.1 1.1h1.9v5.1h-5.7c-2.3 0-3.2-1-3.2-3.2v-11.2c0-2.8-0.5-4.9-3.3-4.9-3 0-5.2 2.5-5.8 5.6-0.3 1-0.4 2-0.4 3.1v10.7h-6.1v-14.5c0-2.6-0.4-4.9-3.3-4.9-3.1 0-5.1 2.5-5.9 5.6-0.2 1-0.4 2-0.4 3.1v10.7h-6v-18.2z"/>
		<path id="Layer" fill-rule="evenodd" class="s0" d="m139.7 22.7c5.3 0 7 3 7 3h0.1c0 0 0-0.6 0-1.4v-4.3c0-0.7-0.4-1.1-1.1-1.1h-1.9v-5.2h5.8c2.2 0 3.2 1 3.2 3.2v24.5c0 0.7 0.4 1.1 1.1 1.1h1.9v5.1h-5.6c-2.2 0-3-1.1-3-2.5 0-0.5 0-0.9 0-0.9h-0.1c0 0-2 4-7.6 4-6.6 0-10.8-5.2-10.8-12.8-0.1-7.7 4.6-12.7 11-12.7zm7.2 12.7c0-3.8-2-7.5-6-7.5-3.3 0-6.1 2.7-6.1 7.5 0 4.6 2.4 7.6 6 7.6 3.2 0.1 6.1-2.2 6.1-7.6z"/>
		<path id="Layer" fill-rule="evenodd" class="s0" d="m172.9 32.3h0.8v-0.2c0-3.5-1.4-4.8-4.5-4.8-1.1 0-3.2 0.3-3.2 1.6v1.3h-5.6v-2.6c0-4.5 6.4-5 8.9-5 8.1 0 10.5 4.3 10.5 9.7v9.1c0 0.7 0.4 1.1 1.1 1.1h1.9v5.1h-5.4c-2.2 0-3.1-1.2-3.1-2.7 0-0.6 0-1.1 0-1.1h-0.1c0 0-1.9 4.3-7.4 4.3-4.3 0-8.3-2.7-8.3-7.6-0.1-7.6 10.4-8.2 14.4-8.2zm-4.7 11.1c3.2 0 5.5-3.4 5.5-6.4v-0.6h-1.1c-3.2 0-8.2 0.4-8.2 3.8 0.1 1.7 1.3 3.2 3.8 3.2z"/>
		<path id="Layer" class="s0" d="m200 19.9c0-0.7-0.4-1.1-1.1-1.1h-1.9v-5.2h5.8c2.2 0 3.2 1 3.2 3.2v8.6c0 1.2-0.1 2.1-0.1 2.1h0.1c1.1-2.3 4.2-4.8 8.4-4.8 5.4 0 8.5 2.8 8.5 9.3v9.5c0 0.7 0.4 1.1 1.1 1.1h1.9v5.1h-5.8c-2.2 0-3.2-1-3.2-3.2v-11.3c0-3-0.8-5-3.9-5-3.2 0-5.7 2.1-6.6 5.1-0.3 1-0.4 2-0.4 3.2v11.2h-6z"/>
		<path id="Layer" fill-rule="evenodd" class="s0" d="m241.7 22.7c7.5 0 13.4 5.3 13.4 12.8 0 7.5-5.9 12.8-13.4 12.8-7.4 0-13.3-5.3-13.3-12.8-0.1-7.5 5.9-12.8 13.3-12.8zm0 20.3c4 0 7.3-3.1 7.3-7.6 0-4.5-3.3-7.6-7.3-7.6-3.9 0-7.2 3.1-7.2 7.6 0 4.6 3.3 7.6 7.2 7.6z"/>
		<path id="Layer" class="s0" d="m260.6 39.9c0 0 3.1 3.6 7.3 3.6 1.9 0 3.3-0.8 3.3-2.4 0-3.4-12.9-3.4-12.9-11.3 0-4.9 4.4-7.1 9.5-7.1 3.3 0 8.6 1.1 8.6 5.1v2.5h-5.4v-1.2c0-1.1-1.7-1.7-3.1-1.7-2.2 0-3.6 0.8-3.6 2.2 0 3.8 12.9 3.1 12.9 11.2 0 4.6-4.1 7.5-9.4 7.5-6.7 0-10.1-4.3-10.1-4.3z"/>
		<path id="Layer" class="s0" d="m283 28.1h-3.2v-4.8h3.3v-6.6h5.9v6.6h5.5v4.8h-5.5v9.8c0 4 3.2 4.6 4.8 4.6 0.7 0 1.1-0.1 1.1-0.1v5.3c0 0-0.8 0.1-1.9 0.1-3.4 0-10.1-1-10.1-9.2v-10.5z"/>
	</g>
	<path id="Layer" class="s1" d="m189 13.7h0.5v34.1h-0.5z"/>
	<filter id="f1">
		<feFlood flood-color="#ffffff" flood-opacity="1" />
		<feBlend mode="normal" in2="SourceGraphic"/>
		<feComposite in2="SourceAlpha" operator="in" />
	</filter>
	<g id="Layer" filter="url(#f1)">
		<g id="Layer">
			<path id="Layer" class="s2" d="m22.3 8.1h-19.3v39.4h38.9v-19.7h-9.9v9.9h-19.3v-19.7h9.7v-9.9"/>
			<path id="Layer" class="s2" d="m22.4 17.7h9.6v10.1h-9.6z"/>
			<path id="Layer" class="s2" d="m39.7 17h7.9v7.9h-7.9z"/>
			<path id="Layer" class="s2" d="m27.7 4.7h9.9v10h-9.9z"/>
			<path id="Layer" class="s2" d="m41.9 3.9h8.5v7.7h-8.5z"/>
		</g>
		<g id="Layer">
			<path id="Layer" class="s0" d="m12.7 37.2v-19.2h9.7v-9.9h-19.4v38.8z"/>
			<path id="Layer" class="s0" d="m32 17.9v-0.2h-9.6v9.8z"/>
			<path id="Layer" class="s0" d="m39.7 17h7.9v7.9h-7.9z"/>
			<path id="Layer" class="s0" d="m37.6 12.3v-7.6h-9.9v10h7.5"/>
			<path id="Layer" class="s0" d="m46 3.9h-4.1v4.1z"/>
		</g>
	</g>
</svg>