<svg width="13" height="13" viewBox="0 0 13 13" fill="none" xmlns="http://www.w3.org/2000/svg">
<g opacity="0.5">
<path fill-rule="evenodd" clip-rule="evenodd" d="M5.14251 2.38779C4.7756 3.33766 4.53689 4.68633 4.53689 6.20216C4.53689 7.71799 4.7756 9.06666 5.14322 10.0165C5.32739 10.4932 5.53422 10.8425 5.73681 11.0635C5.93868 11.2845 6.09522 11.3362 6.19793 11.3362C6.30064 11.3362 6.45718 11.2845 6.65976 11.0635C6.86164 10.8425 7.06847 10.4932 7.25264 10.0165C7.62097 9.06666 7.85897 7.71799 7.85897 6.20216C7.85897 4.68633 7.62026 3.33766 7.25264 2.38779C7.06847 1.91108 6.86164 1.56187 6.65906 1.34087C6.45718 1.11987 6.30064 1.06816 6.19793 1.06816C6.09522 1.06816 5.93868 1.11987 5.73681 1.34087C5.53422 1.56187 5.32668 1.91108 5.14251 2.38779ZM4.95339 0.624036C5.27568 0.270578 5.69572 0.00566101 6.19864 0.00566101C6.70156 0.00566101 7.1216 0.270578 7.44389 0.623328C7.76618 0.975369 8.03181 1.45562 8.24431 2.00458C8.67001 3.10462 8.92218 4.58929 8.92218 6.20216C8.92218 7.81504 8.67001 9.2997 8.24431 10.3997C8.03181 10.948 7.76618 11.429 7.44389 11.781C7.1216 12.133 6.70156 12.3987 6.19864 12.3987C5.69572 12.3987 5.27568 12.133 4.95339 11.781C4.6311 11.429 4.36547 10.9487 4.15297 10.3997C3.72726 9.2997 3.4751 7.81504 3.4751 6.20216C3.4751 4.58929 3.72726 3.10462 4.15297 2.00458C4.36547 1.45562 4.6311 0.976078 4.95339 0.624036Z" fill="#ACAFB4"/>
<path fill-rule="evenodd" clip-rule="evenodd" d="M6.19792 1.0625C5.52352 1.0625 4.85573 1.19533 4.23268 1.45341C3.60962 1.71149 3.0435 2.08976 2.56663 2.56663C2.08976 3.0435 1.71149 3.60962 1.45341 4.23268C1.19533 4.85573 1.0625 5.52352 1.0625 6.19792C1.0625 6.87231 1.19533 7.5401 1.45341 8.16316C1.71149 8.78621 2.08976 9.35234 2.56663 9.8292C3.0435 10.3061 3.60962 10.6843 4.23268 10.9424C4.85573 11.2005 5.52352 11.3333 6.19792 11.3333C7.55991 11.3333 8.86613 10.7923 9.8292 9.8292C10.7923 8.86613 11.3333 7.55991 11.3333 6.19792C11.3333 4.83592 10.7923 3.52971 9.8292 2.56663C8.86613 1.60355 7.55991 1.0625 6.19792 1.0625ZM0 6.19792C0 4.55413 0.652993 2.97766 1.81533 1.81533C2.97766 0.652993 4.55413 0 6.19792 0C7.84171 0 9.41817 0.652993 10.5805 1.81533C11.7428 2.97766 12.3958 4.55413 12.3958 6.19792C12.3958 7.84171 11.7428 9.41817 10.5805 10.5805C9.41817 11.7428 7.84171 12.3958 6.19792 12.3958C4.55413 12.3958 2.97766 11.7428 1.81533 10.5805C0.652993 9.41817 0 7.84171 0 6.19792Z" fill="#ACAFB4"/>
<path fill-rule="evenodd" clip-rule="evenodd" d="M0 6.19366C0 6.05277 0.0559708 5.91764 0.155599 5.81801C0.255228 5.71839 0.390354 5.66241 0.53125 5.66241L11.8646 5.67091C12.0055 5.67091 12.1406 5.72689 12.2402 5.82651C12.3399 5.92614 12.3958 6.06127 12.3958 6.20216C12.3958 6.34306 12.3399 6.47819 12.2402 6.57782C12.1406 6.67744 12.0055 6.73341 11.8646 6.73341L0.53125 6.72562C0.390354 6.72562 0.255228 6.66965 0.155599 6.57002C0.0559708 6.47039 0 6.33527 0 6.19437" fill="#ACAFB4"/>
</g>
</svg>
