<svg width="5" height="8" viewBox="0 0 5 8" fill="none" xmlns="http://www.w3.org/2000/svg">
<path opacity="0.5" fill-rule="evenodd" clip-rule="evenodd" d="M0.244231 7.76577C0.0942539 7.61575 0.0100014 7.4123 0.0100014 7.20017C0.0100014 6.98804 0.0942538 6.78459 0.244231 6.63457L2.87863 4.00017L0.24423 1.36577C0.167822 1.29197 0.106876 1.2037 0.0649492 1.10609C0.023022 1.00849 0.000952949 0.903515 2.98908e-05 0.797291C-0.000893167 0.691068 0.019348 0.585725 0.0595727 0.487408C0.0997974 0.389091 0.1592 0.299769 0.234314 0.224655C0.309428 0.149541 0.39875 0.0901384 0.497067 0.0499139C0.595384 0.00968883 0.700728 -0.0105534 0.806951 -0.00963024C0.913175 -0.00870709 1.01815 0.0133619 1.11575 0.0552892C1.21336 0.0972166 1.30163 0.158163 1.37543 0.234571L4.57543 3.43457C4.72541 3.58459 4.80966 3.78804 4.80966 4.00017C4.80966 4.2123 4.72541 4.41575 4.57543 4.56577L1.37543 7.76577C1.22541 7.91575 1.02196 8 0.809831 8C0.597699 8 0.394253 7.91575 0.244231 7.76577Z" fill="#ACAFB4"/>
</svg>
